<svg width="93" height="46" fill="none" xmlns="http://www.w3.org/2000/svg"><g clip-path="url(#clip0_75_29)" fill-rule="evenodd" clip-rule="evenodd"><path d="M12.21 26.332c-2.905-2.014-5.922-2.708-9.032-2.086l-.892-.91C1.623 24.508.846 24.893 0 24.485c.206-3.285 2.63-4.794 7.293-4.482.275-1.99 1.03-2.973 2.219-2.997 9.19.647 14.336.192 15.456-1.414 1.922.48-2.332 4.05-12.758 10.739zm-2.927-6.328c1.166.863 1.943.695 2.378-.504-.366-.456-1.166-.456-2.378 0-.137.217-.137.384 0 .504zm16.05 13.304c-2.742.911-4.617.552-5.555-1.078l19.32-14.959C48.132 8.737 64.41 5.67 87.962 8.041l-.275.456c-4.024-.24-7.476-.36-10.334-.335-2.836.024-7.431.383-13.742 1.055-6.31.672-13.718 4.554-22.27 11.626L25.335 33.308z" fill="#2B5BB7"/><path d="M20.945 28.993c-3.385 1.102-5.672.67-6.814-1.343L37.772 9.36C46.735 2.215 64.982-.853 92.534.201c.548.288.617.624.183.983-8.163-.191-14.177-.191-18.086 0-12.278-.312-23.642 3.86-34.09 12.513L20.944 28.993z" fill="#2B5BB7"/><path d="M75.225 30.982c-1.349.024-2.492.048-3.475.096-8.323-.24-16.05 2.589-23.163 8.486l-7.18 5.61-.548.431c-2.31.743-3.841.456-4.641-.91l5.464-4.22.022.024 5.008-3.884c5.099-4.074 14.61-6.184 28.512-6.352v.72z" fill="#A3D9D3"/><path d="M35.166 42.393c-2.309.743-3.842.456-4.641-.91l16.074-12.418c5.624-4.483 16.576-6.592 32.925-6.329v.72c-3.384-.048-6.014-.024-7.889.072-8.345-.24-16.05 2.59-23.162 8.486l-13.307 10.38z" fill="#78D6CF"/><path d="M45.524 26.308l-14.953 11.65c-2.584.839-4.322.504-5.192-1.007l18.019-13.975c6.653-5.297 19.96-7.622 39.921-7.048v.791c-5.213-.12-9.145-.096-11.798.048-9.352-.264-18.018 2.924-25.997 9.541z" fill="#7DDCED"/></g><defs><clipPath id="clip0_75_29"><path fill="#fff" transform="matrix(-1 0 0 1 93 0)" d="M0 0h93v46H0z"/></clipPath></defs></svg>