<svg width="13" height="16" fill="none" xmlns="http://www.w3.org/2000/svg"><path fill-rule="evenodd" clip-rule="evenodd" d="M6.097 1.403a5.374 5.374 0 013.417.96 5.359 5.359 0 012.268 3.795 5.402 5.402 0 01-1.317 4.197L7.105 14.1a.377.377 0 01-.518.03L2.85 10.82a5.4 5.4 0 01-1.818-4.008 5.358 5.358 0 011.79-4.042 5.371 5.371 0 013.276-1.367zM4.022 6.93A2.409 2.409 0 006.57 9.185a2.408 2.408 0 002.256-2.548 2.409 2.409 0 00-2.548-2.256A2.409 2.409 0 004.022 6.93z" fill="#fff"/><path d="M6.353 5.612a1.173 1.173 0 10.144 2.342 1.173 1.173 0 00-.144-2.342z" fill="#fff"/></svg>